<?xml version="1.0" standalone="no"?>
<!DOCTYPE svg PUBLIC "-//W3C//DTD SVG 20010904//EN"
 "http://www.w3.org/TR/2001/REC-SVG-20010904/DTD/svg10.dtd">
<svg version="1.0" xmlns="http://www.w3.org/2000/svg"
 width="639.000000pt" height="639.000000pt" viewBox="0 0 639.000000 639.000000"
 preserveAspectRatio="xMidYMid meet">
<metadata>
Created by potrace 1.14, written by Peter Selinger 2001-2017
</metadata>
<g transform="translate(0.000000,639.000000) scale(0.100000,-0.100000)"
fill="#000000" stroke="none">
<path d="M2915 6350 c-701 -64 -1345 -345 -1860 -810 -122 -110 -292 -292
-395 -422 l-60 -78 37 0 38 0 -25 -25 c-22 -21 -35 -24 -110 -27 l-85 -2 -49
-45 c-66 -62 -98 -112 -125 -198 -19 -61 -22 -89 -20 -190 3 -115 2 -120 -33
-208 -77 -192 -179 -566 -178 -650 l1 -20 15 20 c9 11 31 50 50 88 19 37 50
92 69 122 19 30 35 57 35 61 0 3 29 49 65 100 36 52 73 114 82 137 9 23 40 83
68 132 28 50 80 144 115 210 183 346 391 634 635 882 151 153 182 173 316 207
73 18 174 21 184 6 11 -18 34 -10 37 13 4 28 54 53 134 68 111 21 318 -5 379
-47 36 -26 41 -14 6 15 l-35 29 75 17 c148 33 406 29 559 -10 128 -33 253 -80
375 -141 120 -60 210 -116 161 -100 -39 13 -136 19 -136 8 0 -5 6 -12 13 -15
7 -3 56 -41 108 -84 126 -106 358 -349 482 -503 94 -117 227 -308 227 -326 0
-4 -23 18 -51 50 -48 53 -148 131 -157 121 -2 -2 26 -41 63 -86 76 -94 97
-132 118 -209 8 -30 33 -120 55 -200 22 -80 43 -171 47 -202 4 -32 13 -62 21
-69 23 -19 83 -198 83 -249 0 -8 -17 21 -38 65 -21 44 -50 90 -64 103 -30 28
-69 26 -73 -3 -42 -265 -26 -592 37 -783 42 -126 67 -157 239 -292 153 -120
326 -322 376 -438 l25 -57 -88 90 c-48 50 -110 105 -137 122 -45 30 -53 32
-126 30 -43 -1 -81 -5 -85 -8 -3 -4 14 -35 38 -70 111 -160 223 -429 234 -564
l5 -60 -49 80 c-88 144 -426 622 -430 608 -2 -6 5 -31 16 -56 49 -113 66 -356
36 -486 -26 -107 -32 -98 -28 46 4 140 -13 293 -32 300 -6 2 -9 -32 -7 -94 8
-200 -44 -315 -183 -407 -60 -40 -67 -34 -38 31 21 46 27 75 29 148 1 49 6
194 10 320 4 152 3 290 -5 407 -12 168 -11 178 7 215 30 58 68 187 94 314 20
99 23 143 22 339 0 211 -2 231 -27 324 -28 105 -56 161 -106 213 -17 18 -31
31 -31 30 0 -2 7 -48 15 -103 19 -127 19 -378 0 -514 -44 -309 -160 -550 -304
-635 -7 -4 8 19 34 51 158 194 218 557 134 812 -19 56 -39 82 -39 49 0 -7 -25
-69 -55 -137 -31 -69 -60 -136 -66 -149 -18 -42 -19 -16 -3 65 9 50 15 137 15
234 0 232 -27 308 -156 448 -189 204 -605 474 -935 607 -52 21 -101 43 -108
48 -18 14 -28 -1 -10 -16 8 -6 55 -66 104 -132 48 -66 114 -148 146 -182 32
-34 58 -66 58 -70 0 -5 -13 6 -28 24 -105 122 -387 432 -390 428 -3 -2 20 -57
51 -122 31 -65 69 -152 86 -194 30 -77 103 -330 97 -336 -2 -2 -13 20 -26 49
-66 158 -98 223 -156 318 -36 58 -99 163 -142 234 -42 72 -83 132 -90 134 -7
2 -19 -12 -27 -32 -59 -141 0 -396 137 -598 21 -32 36 -58 32 -58 -3 0 -34 20
-68 44 -84 60 -193 170 -272 275 -61 82 -184 306 -184 336 0 10 -13 7 -52 -13
-74 -38 -203 -170 -276 -282 -94 -144 -121 -170 -182 -170 -32 0 -32 0 -27
-42 2 -24 0 -63 -6 -87 -9 -38 -8 -46 8 -57 16 -12 15 -19 -18 -126 -20 -62
-41 -132 -47 -155 -7 -29 -23 -53 -55 -81 -44 -39 -55 -64 -35 -77 7 -4 8 -24
4 -51 -6 -41 -5 -44 16 -44 20 0 22 -4 16 -32 -14 -74 -18 -375 -7 -460 14
-107 45 -228 72 -280 19 -36 19 -46 8 -113 -6 -40 -10 -91 -7 -114 13 -141
-81 114 -107 291 -8 54 -15 119 -15 145 l-1 48 -19 -23 c-26 -32 -54 -125 -75
-252 -28 -166 -8 -405 42 -504 20 -40 53 -76 69 -76 16 0 13 -21 -23 -168 -13
-57 -34 -125 -45 -150 -55 -125 -68 -262 -44 -432 25 -173 61 -300 112 -402
14 -27 20 -48 14 -48 -17 0 -122 150 -142 203 -30 78 -58 208 -51 236 4 19 2
23 -5 16 -16 -15 -89 -239 -97 -300 -4 -27 -11 -57 -16 -65 -16 -28 -9 50 25
305 9 61 16 148 16 195 0 108 39 283 79 356 31 58 26 76 -6 22 -11 -18 -53
-75 -94 -127 -41 -52 -103 -133 -139 -181 -36 -47 -81 -106 -101 -130 -21 -25
-53 -71 -72 -103 l-35 -58 -20 33 c-22 35 -64 124 -117 250 l-33 76 24 23 c63
59 213 321 268 469 44 116 87 275 102 376 8 55 20 137 27 184 l13 85 8 -55 c9
-65 66 -310 72 -310 8 0 -5 373 -16 445 -53 381 -33 830 46 988 28 57 28 57
10 57 -8 0 -30 -18 -49 -40 -36 -43 -68 -129 -87 -238 -29 -163 -29 -530 -1
-742 13 -94 13 -92 1 -85 -6 4 -10 -9 -10 -33 0 -102 -133 -366 -230 -457
l-32 -30 26 52 c30 59 32 80 12 108 -7 11 -14 23 -14 28 -1 4 -19 44 -41 90
-135 277 -126 726 21 1021 16 32 28 60 25 62 -6 6 -113 -119 -163 -192 -45
-66 -151 -265 -204 -384 -23 -50 -25 -70 -28 -230 -10 -489 95 -972 308 -1417
438 -917 1310 -1579 2310 -1752 204 -35 301 -43 530 -45 204 -1 431 12 388 21
-10 3 -18 6 -18 8 0 1 -16 108 -35 236 -19 129 -41 281 -50 339 -8 58 -17 116
-20 129 -6 23 -5 24 45 19 28 -3 53 -7 56 -10 2 -3 13 -59 24 -124 11 -66 36
-215 55 -333 19 -117 35 -222 35 -232 0 -15 -8 -19 -37 -20 -21 0 -32 -3 -24
-6 16 -7 230 27 236 37 3 4 -12 4 -33 -1 -20 -4 -40 -5 -43 -1 -6 7 -119 624
-119 650 0 15 13 15 61 2 l37 -10 57 -238 c79 -328 93 -383 98 -388 13 -13
316 77 483 144 161 64 434 202 434 219 0 3 -20 -7 -45 -21 -98 -58 -437 -216
-462 -216 -4 0 -66 130 -143 295 -15 33 -50 108 -78 167 -166 352 -282 606
-282 616 0 6 12 15 26 18 42 11 263 -2 349 -21 391 -82 800 -311 946 -528 l41
-62 -34 -28 c-18 -15 -91 -67 -163 -114 -119 -80 -174 -119 -135 -98 124 68
334 223 488 358 493 435 859 1071 991 1723 46 231 63 393 63 634 0 289 -25
503 -93 778 -103 419 -300 824 -576 1182 -109 142 -382 419 -523 530 -460 362
-986 585 -1575 665 -137 19 -531 28 -670 15z m704 -790 c46 -6 97 -17 115 -24
28 -12 21 -13 -65 -8 -53 2 -124 0 -162 -7 -63 -11 -69 -10 -97 10 -16 12 -27
26 -24 31 7 11 133 10 233 -2z m-2455 -58 c-12 -9 -59 -47 -105 -83 -46 -37
-136 -115 -199 -175 -96 -92 -109 -101 -80 -60 80 114 201 226 324 300 62 38
96 48 60 18z m2659 -27 c68 -6 77 -9 77 -27 0 -21 -69 -129 -119 -188 l-30
-35 -35 34 c-20 19 -36 38 -36 41 0 4 26 19 58 35 31 16 52 30 45 32 -11 4
-81 -8 -128 -21 -15 -4 -36 9 -83 53 l-63 58 58 12 c61 12 137 19 163 15 8 -1
50 -5 93 -9z m-432 -36 c73 -24 163 -68 199 -97 l25 -20 -36 -17 -37 -18 -58
49 c-33 27 -83 64 -112 83 -75 48 -73 50 19 20z m322 -198 l27 -25 -27 -28
c-15 -15 -32 -28 -37 -27 -6 0 -24 16 -39 35 l-29 34 22 30 c24 34 25 33 83
-19z m176 -110 c-7 -48 -24 -88 -54 -125 -8 -11 -16 -18 -17 -15 -2 2 -13 16
-26 30 l-22 26 62 66 c35 37 63 67 64 67 1 0 -2 -22 -7 -49z m-3314 -191 c13
-21 -20 -49 -65 -55 -25 -3 -70 -11 -100 -17 l-55 -12 70 -8 c38 -5 73 -12 77
-16 9 -9 -30 -72 -46 -72 -7 0 -23 11 -36 25 -12 13 -38 29 -56 35 -19 7 -34
15 -34 19 0 11 51 57 80 72 63 32 153 49 165 29z m1150 -232 c49 -143 176
-331 307 -459 103 -99 158 -111 63 -13 -101 103 -193 256 -234 388 -11 37 -21
70 -21 73 0 3 39 -36 88 -88 162 -172 398 -323 527 -336 l60 -6 -63 53 c-66
54 -140 155 -188 258 -15 31 -49 90 -75 130 -27 39 -46 72 -42 72 3 0 22 -12
42 -27 46 -37 133 -93 142 -93 7 0 169 -294 169 -306 0 -3 10 -18 21 -32 l22
-27 -6 31 c-6 30 -4 33 41 52 237 100 660 10 889 -190 78 -69 80 -58 2 15
-142 134 -360 221 -630 252 -35 5 -59 13 -66 23 -6 10 -54 84 -107 165 -67
104 -90 144 -74 136 13 -6 191 -106 396 -222 321 -181 384 -220 447 -279 93
-87 109 -113 129 -216 16 -81 22 -284 10 -330 -6 -21 -9 -20 -38 22 -17 24
-45 62 -63 84 l-32 39 36 37 c20 20 33 39 30 42 -5 5 -44 -14 -78 -38 -13 -9
-22 -8 -43 5 l-26 17 20 33 c31 50 24 66 -11 24 l-30 -37 -57 30 c-91 49 -152
63 -261 58 -96 -4 -141 -18 -214 -65 -25 -17 -30 -17 -72 -2 -51 19 -58 11
-19 -20 25 -20 26 -22 10 -39 -22 -25 -20 -35 5 -21 19 10 19 7 -5 -27 -31
-46 -37 -85 -9 -63 15 13 16 11 10 -19 -4 -21 -3 -31 3 -27 6 3 10 19 10 35 0
36 71 114 123 135 33 14 53 6 27 -10 -12 -7 -34 -49 -45 -84 l-7 -24 35 27
c20 15 57 31 84 36 44 7 45 8 13 10 l-35 2 40 19 c40 19 107 24 163 13 29 -6
118 -71 109 -80 -2 -2 -21 3 -43 12 -21 9 -74 18 -116 19 -77 3 -77 3 -66 -19
14 -32 -11 -78 -64 -116 -22 -17 -38 -30 -34 -30 4 0 27 14 50 30 34 25 56 32
113 37 39 3 91 3 117 -1 40 -6 46 -10 41 -26 -3 -10 -2 -21 3 -24 6 -3 9 2 8
11 0 10 7 19 17 21 17 3 25 -22 10 -31 -5 -2 -2 -2 6 0 23 6 31 -18 31 -98 0
-89 -16 -136 -61 -173 -31 -26 -32 -26 -153 -20 -104 6 -124 10 -144 28 -35
31 -72 111 -79 168 -5 42 -3 53 12 64 17 13 15 14 -23 14 -36 0 -42 -3 -42
-20 0 -33 39 -141 72 -199 24 -42 29 -58 21 -71 -10 -15 1 -18 116 -27 69 -6
151 -8 182 -4 48 6 61 12 91 45 20 21 41 56 47 76 15 50 14 144 -3 206 -14 55
-59 149 -82 175 -24 27 -15 30 26 9 63 -32 117 -86 146 -146 26 -53 26 -57 15
-126 -6 -39 -10 -73 -7 -75 2 -3 13 8 22 23 12 17 20 52 22 96 3 37 6 68 7 68
2 0 16 -13 33 -28 l30 -28 -14 -65 c-29 -135 -84 -274 -139 -351 -19 -26 -35
-50 -35 -52 0 -3 14 0 32 5 45 13 111 81 151 157 l34 64 6 -84 c22 -291 22
-303 -7 -352 -30 -51 -88 -96 -124 -96 -13 0 -20 -4 -17 -10 10 -17 83 -11
126 10 l41 19 -6 -73 c-7 -85 -23 -136 -71 -221 -107 -191 -259 -351 -530
-554 -226 -170 -238 -178 -318 -192 -76 -13 -71 -14 -337 66 -80 24 -176 51
-215 61 -234 56 -495 251 -607 456 -83 150 -229 329 -322 393 -25 18 -30 28
-33 80 l-5 60 69 -73 c84 -89 170 -142 227 -141 l41 1 -45 15 c-33 12 -69 40
-134 105 -48 49 -86 91 -84 94 3 2 26 -7 51 -22 26 -14 47 -23 47 -19 0 4 -20
25 -45 47 -60 53 -99 111 -136 203 -42 106 -59 206 -59 348 0 144 28 292 59
313 12 9 17 21 14 39 -3 14 1 32 8 41 9 11 13 47 14 108 0 102 21 169 83 264
25 39 40 52 58 52 13 0 25 3 25 8 1 4 3 20 5 36 1 16 12 38 24 50 11 12 20 35
20 50 0 15 10 42 22 59 33 48 179 197 213 218 34 22 26 33 70 -93z m-384 -105
c6 -16 22 -38 37 -50 15 -11 24 -24 21 -27 -3 -3 -27 -9 -54 -13 l-48 -6 6 33
c4 18 7 45 7 61 0 37 17 37 31 2z m-41 -111 c22 -47 39 -89 38 -93 -2 -5 -23
1 -47 11 -24 11 -58 20 -77 20 -32 0 -33 1 -24 26 6 14 10 49 10 78 l0 53 30
-5 c27 -4 35 -14 70 -90z m1388 -43 c-7 -4 -29 -11 -50 -14 -21 -4 -53 -17
-72 -30 l-35 -24 -10 52 c-5 29 -12 68 -15 87 l-6 36 101 -50 c67 -33 96 -52
87 -57z m-1499 -441 c1 -8 -59 -22 -66 -15 -3 3 -2 19 2 36 l7 31 28 -22 c16
-13 29 -26 29 -30z m-71 -46 c38 -81 39 -86 10 -71 -13 7 -36 12 -52 11 -25
-2 -28 0 -22 22 3 14 2 36 -3 49 -7 18 -5 28 7 41 9 9 19 16 22 16 3 0 20 -31
38 -68z m2010 -135 c2 -12 -3 -17 -17 -17 -12 0 -21 6 -21 13 0 31 32 34 38 4z
m1608 -298 c3 -6 -5 -21 -19 -33 -18 -15 -30 -42 -42 -89 -9 -38 -15 -70 -13
-72 2 -2 45 28 96 67 87 66 107 91 80 100 -6 2 -9 12 -5 21 5 15 23 17 127 17
133 0 150 -10 86 -48 -57 -34 -216 -165 -216 -178 0 -15 88 -149 122 -185 13
-14 31 -28 38 -31 8 -2 11 -11 7 -22 -6 -16 -17 -17 -94 -12 -109 7 -133 21
-201 116 -29 41 -57 76 -61 78 -5 1 -16 -27 -25 -64 -15 -60 -15 -68 -1 -84
37 -41 21 -47 -120 -46 -94 1 -110 3 -113 18 -2 9 5 19 18 23 29 9 42 41 90
213 38 141 40 155 26 171 -19 21 -20 38 -3 44 25 11 216 7 223 -4z m809 1 c8
-13 -23 -120 -34 -120 -5 0 -14 7 -21 15 -9 11 -33 15 -91 15 -43 0 -80 -3
-83 -8 -2 -4 -7 -24 -11 -45 l-7 -37 76 0 c85 0 85 -1 66 -72 -10 -35 -12 -36
-39 -27 -16 6 -52 9 -81 7 l-53 -3 -13 -45 c-17 -55 -18 -92 -3 -107 7 -7 9
-18 6 -26 -4 -11 -27 -14 -106 -14 -85 1 -101 3 -101 16 0 9 23 98 50 199 28
101 50 189 50 197 0 8 -7 18 -17 23 -10 6 -14 16 -10 26 6 14 31 16 211 16
128 0 207 -4 211 -10z m460 1 c27 -6 30 -10 28 -42 -1 -19 -7 -47 -12 -62
l-10 -27 -48 26 c-39 21 -57 25 -99 21 -66 -7 -129 -39 -155 -80 -28 -44 -22
-127 11 -162 36 -39 101 -59 168 -52 31 3 66 9 76 13 17 7 19 4 13 -36 -3 -23
-9 -46 -14 -51 -15 -15 -147 -31 -203 -24 -159 18 -244 92 -243 211 1 119 120
233 275 263 51 10 171 11 213 2z m95 -21 c0 -5 -5 -10 -11 -10 -5 0 -7 5 -4
10 3 6 8 10 11 10 2 0 4 -4 4 -10z m-5838 -357 c3 -10 -4 -35 -14 -56 -30 -61
-50 -180 -46 -276 4 -111 34 -178 120 -268 52 -54 57 -63 32 -50 -43 22 -108
98 -141 166 -27 53 -28 63 -28 196 0 138 5 164 43 262 18 46 28 53 34 26z
m3408 -343 c-11 -26 -37 -46 -46 -37 -2 2 -1 24 2 48 5 33 12 48 28 55 18 8
21 5 24 -15 2 -13 -2 -36 -8 -51z m-2379 -86 c7 -9 12 -34 10 -59 -2 -39 1
-45 39 -75 35 -27 41 -37 38 -64 -3 -29 -6 -31 -40 -30 -21 1 -38 -3 -38 -8 0
-15 136 -97 197 -119 103 -38 150 -118 61 -106 -61 8 -221 102 -281 165 -26
27 -53 110 -75 231 -9 50 -9 50 19 56 16 4 31 11 34 16 9 13 21 11 36 -7z
m1883 -759 c3 -38 8 -104 12 -145 l6 -76 -51 -57 c-62 -67 -133 -120 -182
-136 -32 -10 -40 -20 -71 -89 -20 -42 -38 -89 -42 -104 -7 -31 -15 -32 -63
-15 -21 8 -52 40 -96 97 -59 79 -68 87 -121 103 -89 29 -246 112 -301 160 -42
37 -53 54 -64 98 -7 30 -24 81 -37 113 -13 33 -22 61 -19 64 2 2 111 -28 242
-67 339 -103 385 -99 548 50 22 21 81 72 130 114 l90 76 7 -58 c4 -32 9 -89
12 -128z m126 -304 c16 -16 36 -52 45 -84 16 -56 16 -58 -13 -164 -17 -59 -33
-123 -37 -142 -11 -54 -25 -15 -18 52 8 81 -8 97 -96 97 -36 0 -97 -7 -136
-15 -38 -8 -71 -12 -74 -10 -8 8 50 80 92 115 23 19 67 63 97 98 49 57 78 79
103 81 5 1 21 -12 37 -28z m-940 -86 c75 -23 119 -47 162 -87 28 -26 78 -98
78 -112 0 -2 -39 -6 -86 -9 -51 -4 -101 -13 -122 -24 -32 -16 -38 -24 -46 -65
-4 -27 -6 -54 -3 -62 8 -19 125 -55 205 -63 34 -3 62 -8 62 -10 0 -2 -23 -48
-50 -103 -28 -55 -46 -100 -42 -100 8 0 92 125 117 174 6 11 16 21 23 24 10 3
9 -6 -4 -34 -9 -22 -35 -87 -57 -146 -39 -106 -41 -108 -76 -114 -86 -16 -235
-56 -312 -85 -118 -44 -161 -48 -192 -17 -37 37 -67 160 -82 338 -8 84 9 225
32 280 l14 35 23 -72 c56 -174 217 -400 332 -468 56 -33 71 -26 17 8 -122 77
-230 277 -268 496 -21 116 -19 183 3 212 33 40 149 41 272 4z m1146 -212 c33
-21 45 -36 53 -68 23 -83 31 -151 31 -256 l0 -108 -51 -52 c-47 -48 -53 -51
-87 -46 -249 38 -323 46 -448 47 l-72 0 -22 115 c-12 63 -18 119 -15 125 12
20 33 9 61 -31 30 -44 172 -179 187 -179 6 0 6 5 0 13 -109 138 -153 199 -153
207 0 5 16 10 35 10 39 0 149 36 209 68 22 12 41 20 43 18 5 -4 -42 -192 -57
-232 -6 -15 -9 -28 -7 -30 2 -2 53 93 113 211 65 129 114 215 123 215 7 0 33
-12 57 -27z m-1896 -509 c-33 -148 -66 -291 -73 -318 l-13 -49 -114 78 c-100
68 -207 150 -330 254 l-34 29 34 15 c29 12 283 131 525 246 33 16 61 25 63 21
1 -4 -24 -128 -58 -276z m1141 23 c-13 -13 -15 1 -4 30 7 17 8 17 11 -1 2 -10
-1 -23 -7 -29z m572 -104 c3 -5 15 -96 26 -203 20 -179 43 -377 57 -491 l5
-46 -63 -6 c-34 -3 -64 -4 -66 -2 -3 2 -12 116 -42 540 -6 83 -13 165 -16 183
l-5 32 50 0 c27 0 52 -3 54 -7z"/>
<path d="M1672 4229 c-154 -27 -334 -138 -426 -262 -48 -65 -45 -76 7 -24 94
94 227 177 358 223 56 20 104 28 194 33 107 6 117 8 91 19 -39 17 -160 23
-224 11z"/>
<path d="M2744 4132 c-55 -19 -109 -51 -101 -58 3 -3 -1 -31 -9 -62 -16 -68
-16 -72 -6 -72 5 0 9 6 9 13 0 20 53 106 72 116 16 9 115 36 162 45 13 2 56 5
94 6 108 1 54 23 -70 27 -78 3 -111 0 -151 -15z"/>
<path d="M1791 3969 c-53 -10 -158 -50 -221 -84 -64 -35 -38 -30 61 9 134 54
159 55 255 7 45 -23 87 -41 93 -41 10 0 -25 62 -59 102 -16 20 -55 22 -129 7z"/>
<path d="M1588 3806 c-31 -13 -78 -39 -105 -57 -63 -44 -163 -146 -188 -193
-21 -39 -18 -38 -90 -20 l-20 5 20 -16 c11 -9 26 -20 33 -24 10 -6 9 -16 -3
-52 -21 -57 -33 -195 -17 -185 7 4 12 15 12 25 0 21 22 71 33 71 4 0 7 -10 7
-22 1 -33 35 -104 65 -134 35 -35 41 -25 13 22 -20 33 -23 53 -23 134 0 81 4
102 24 140 27 53 91 133 99 126 2 -3 0 -11 -5 -18 -6 -7 -13 -26 -17 -43 -4
-16 -9 -39 -12 -50 -4 -13 5 -7 26 18 36 43 61 58 110 68 32 6 33 7 7 8 -16 0
-38 -4 -50 -10 -14 -6 -9 2 14 24 22 21 60 42 92 53 48 15 61 15 101 4 25 -7
63 -28 83 -47 34 -30 35 -34 13 -27 -57 16 -138 16 -169 -1 -17 -9 -36 -13
-41 -10 -6 3 -10 2 -10 -4 0 -5 5 -13 10 -16 25 -16 -2 -92 -48 -132 -33 -30
-89 -45 -114 -32 -11 6 -22 8 -26 5 -9 -10 27 -127 56 -179 30 -56 115 -137
143 -137 16 0 18 -5 13 -25 -9 -35 5 -32 78 18 84 59 142 85 206 93 53 7 68
22 31 31 -16 4 -19 11 -14 27 36 121 -3 318 -86 434 l-31 43 38 -16 c22 -9 43
-20 49 -26 14 -14 28 -11 21 6 -7 20 0 19 35 -6 46 -32 36 0 -15 50 -45 44
-45 44 -29 74 15 29 15 30 -9 22 -12 -4 -36 -7 -53 -6 -16 1 -68 3 -115 6 -74
4 -92 2 -142 -19z m85 -257 c-7 -7 -20 -8 -30 -5 -17 7 -17 8 1 22 23 17 48 2
29 -17z m164 -17 c-23 -25 -6 -52 22 -35 17 11 22 10 30 -6 12 -22 23 -119 15
-132 -10 -16 -44 11 -61 49 l-16 37 -8 -60 c-6 -49 -12 -64 -39 -88 -28 -25
-39 -28 -73 -24 -41 6 -92 45 -103 79 -3 10 -10 18 -15 18 -12 0 -12 -57 1
-81 8 -14 7 -27 -5 -49 -17 -34 -14 -36 18 -16 30 20 141 14 165 -8 26 -22 31
-20 26 12 -3 21 4 37 35 70 37 41 71 55 71 30 -2 -34 -48 -105 -85 -130 -56
-36 -147 -54 -202 -39 -83 23 -143 104 -143 193 0 42 2 46 29 51 37 8 85 49
101 87 8 20 22 32 39 36 14 3 35 9 46 14 11 5 53 9 94 9 70 1 73 0 58 -17z
m33 -11 c0 -14 -18 -23 -30 -16 -6 4 -8 11 -5 16 8 12 35 12 35 0z"/>
<path d="M1660 3430 c0 -28 22 -50 49 -50 15 0 14 53 -1 68 -23 23 -48 14 -48
-18z"/>
<path d="M3046 3714 c-9 -22 3 -62 21 -68 20 -8 33 1 33 25 0 47 -40 79 -54
43z"/>
<path d="M3200 3630 c0 -74 -55 -129 -113 -115 -32 8 -84 65 -93 100 -3 14
-11 25 -16 25 -6 0 -7 -11 -2 -27 9 -35 9 -61 0 -96 -8 -26 -7 -27 19 -17 20
8 38 6 76 -7 27 -10 49 -21 49 -25 0 -5 5 -8 10 -8 6 0 10 7 10 15 0 8 6 15
13 15 8 0 24 11 37 25 17 18 34 25 64 26 36 0 39 2 22 12 -37 23 -56 47 -56
71 0 14 -4 28 -10 31 -6 4 -10 -7 -10 -25z"/>
<path d="M2420 3274 c0 -63 24 -100 58 -90 35 11 28 51 -18 99 l-39 42 -1 -51z"/>
<path d="M2460 3133 c0 -5 4 -15 10 -23 11 -18 25 -7 17 15 -6 15 -27 21 -27
8z"/>
<path d="M2670 2898 c-77 -14 -86 -28 -17 -28 58 0 156 -17 170 -29 11 -10
-68 -48 -143 -67 -78 -21 -284 -25 -315 -7 -18 11 -14 14 45 43 62 29 63 31
25 26 -22 -3 -67 -19 -101 -36 -118 -58 -152 -153 -99 -281 51 -126 182 -272
296 -329 63 -32 69 -34 69 -22 0 4 -18 15 -39 26 -58 27 -148 101 -177 146
-23 35 -25 43 -15 68 30 73 144 146 252 161 111 15 250 -20 283 -71 21 -34
-37 -183 -100 -257 -20 -23 -33 -41 -29 -41 36 0 125 122 175 238 77 181 78
338 4 404 -58 52 -181 76 -284 56z m28 -263 c-3 -3 -34 -10 -68 -16 -122 -20
-233 -95 -275 -188 -22 -49 -39 -41 -24 12 19 69 138 165 233 188 36 8 142 11
134 4z"/>
<path d="M2501 5521 c147 -31 560 -404 794 -715 32 -42 60 -75 62 -72 15 14
-117 217 -227 348 -201 241 -459 428 -610 442 -42 4 -46 3 -19 -3z"/>
<path d="M522 5018 c-24 -11 -42 -21 -39 -24 2 -2 28 7 58 20 30 14 47 25 39
25 -8 -1 -35 -10 -58 -21z"/>
<path d="M42 3645 c0 -16 2 -22 5 -12 2 9 2 23 0 30 -3 6 -5 -1 -5 -18z"/>
<path d="M32 3570 c0 -14 2 -19 5 -12 2 6 2 18 0 25 -3 6 -5 1 -5 -13z"/>
<path d="M22 3480 c0 -19 2 -27 5 -17 2 9 2 25 0 35 -3 9 -5 1 -5 -18z"/>
</g>
</svg>
